<svg width="24" height="24" viewBox="0 0 24 24" fill="none" xmlns="http://www.w3.org/2000/svg">
<path d="M10.1438 6.62802C10.9304 4.66702 11.3237 3.68652 12 3.68652C12.6763 3.68652 13.0696 4.66702 13.8562 6.62802L13.8929 6.71934C14.3373 7.82721 14.5595 8.38114 15.0123 8.71783C15.4652 9.05452 16.0596 9.10776 17.2485 9.21423L17.4635 9.23348C19.4093 9.40774 20.3822 9.49488 20.5904 10.1139C20.7985 10.7328 20.076 11.3902 18.631 12.7049L18.1487 13.1436C17.4172 13.8092 17.0514 14.1419 16.881 14.5781C16.8492 14.6594 16.8227 14.7428 16.8018 14.8276C16.6898 15.2822 16.7969 15.765 17.0111 16.7304L17.0778 17.031C17.4714 18.8053 17.6683 19.6925 17.3246 20.0751C17.1962 20.2181 17.0293 20.3211 16.8438 20.3717C16.3476 20.5071 15.6432 19.933 14.2342 18.7849C13.309 18.031 12.8464 17.6541 12.3153 17.5693C12.1064 17.5359 11.8936 17.5359 11.6847 17.5693C11.1536 17.6541 10.691 18.031 9.7658 18.7849C8.35684 19.933 7.65237 20.5071 7.15617 20.3717C6.97075 20.3211 6.80384 20.2181 6.67542 20.0751C6.33174 19.6925 6.52857 18.8053 6.92225 17.031L6.98892 16.7304C7.20313 15.765 7.31024 15.2822 7.19818 14.8276C7.17728 14.7428 7.15084 14.6594 7.11904 14.5781C6.94857 14.1419 6.58282 13.8092 5.85131 13.1436L5.36903 12.7049C3.92398 11.3902 3.20146 10.7328 3.40964 10.1139C3.61782 9.49488 4.59073 9.40774 6.53654 9.23348L6.75148 9.21423C7.94039 9.10775 8.53485 9.05452 8.9877 8.71783C9.44055 8.38114 9.66275 7.8272 10.1071 6.71934L10.1438 6.62802Z" stroke="#F0DB1A" stroke-width="2"/>
</svg>
