<svg width="53" height="53" viewBox="0 0 53 53" fill="none" xmlns="http://www.w3.org/2000/svg">
<circle cx="26.5" cy="26.5" r="26" fill="white" stroke="#11AEED"/>
<path d="M20.85 37H16C15.4477 37 15 36.5523 15 36V26C15 25.4477 15.4477 25 16 25H20.85C20.9328 25 21 25.0672 21 25.15V36.85C21 36.9328 20.9328 37 20.85 37Z" stroke="#222222" stroke-linecap="round"/>
<path d="M21 27L24.4854 20.3611C24.5607 20.2178 24.6 20.0583 24.6 19.8963V16C24.6 15.4477 25.0477 15 25.6 15H28C29.1046 15 30 15.8954 30 17V25.2857" stroke="#222222" stroke-linecap="round"/>
<path d="M26.2275 25H37.6401C38.3146 25 38.7957 25.6542 38.5946 26.2981L35.1592 37.2981C35.0288 37.7157 34.6421 38 34.2047 38H26.6214C26.3683 38 26.1245 37.904 25.9394 37.7313L24.7731 36.6437C24.5879 36.471 24.3442 36.375 24.0911 36.375H21" stroke="#222222" stroke-linecap="round"/>
</svg>
