<svg width="24" height="24" viewBox="0 0 24 24" fill="none" xmlns="http://www.w3.org/2000/svg">
<path d="M10.3073 7.22035C10.9494 5.61967 11.2704 4.81932 11.792 4.7084C11.9291 4.67923 12.0709 4.67923 12.208 4.7084C12.7296 4.81932 13.0506 5.61967 13.6927 7.22035C14.0579 8.13063 14.2404 8.58577 14.582 8.89534C14.6779 8.98217 14.7819 9.0595 14.8926 9.12625C15.2875 9.36423 15.7803 9.40837 16.7661 9.49665C18.4349 9.6461 19.2693 9.72083 19.5241 10.1966C19.5768 10.2951 19.6127 10.4018 19.6302 10.5122C19.7147 11.0452 19.1013 11.6033 17.8745 12.7194L17.5338 13.0293C16.9603 13.5511 16.6735 13.812 16.5076 14.1376C16.4081 14.333 16.3414 14.5433 16.3102 14.7603C16.2581 15.122 16.342 15.5004 16.51 16.2574L16.57 16.5279C16.8712 17.8854 17.0218 18.5642 16.8338 18.8978C16.6649 19.1975 16.3539 19.3894 16.0103 19.4058C15.6278 19.4241 15.0888 18.9849 14.0108 18.1065C13.3006 17.5278 12.9455 17.2384 12.5513 17.1254C12.191 17.0221 11.809 17.0221 11.4488 17.1254C11.0545 17.2384 10.6994 17.5278 9.98923 18.1065C8.91125 18.9849 8.37227 19.4241 7.98975 19.4058C7.64615 19.3894 7.3351 19.1975 7.16623 18.8978C6.97824 18.5642 7.12884 17.8854 7.43004 16.5279L7.49004 16.2574C7.658 15.5004 7.74197 15.122 7.68986 14.7603C7.6586 14.5433 7.59188 14.333 7.49238 14.1376C7.32651 13.812 7.03974 13.5511 6.46619 13.0293L6.12552 12.7194C4.89873 11.6033 4.28534 11.0452 4.36981 10.5122C4.3873 10.4018 4.42318 10.2951 4.47595 10.1966C4.73075 9.72083 5.56514 9.6461 7.2339 9.49665C8.21968 9.40837 8.71257 9.36423 9.10741 9.12625C9.21816 9.0595 9.32217 8.98217 9.41799 8.89534C9.7596 8.58577 9.94217 8.13063 10.3073 7.22035Z" fill="#F0DB1A" stroke="#F0DB1A" stroke-width="2"/>
</svg>
